<svg version="1.1" id="Layer_1" xmlns="http://www.w3.org/2000/svg" x="0" y="0" viewBox="0 0 132.06 49.82" xml:space="preserve"><style>.st0{fill:#26592f}</style><path class="st0" d="M21.92 35.67c0-1.42-.5-2.57-1.49-3.45-.99-.89-2.24-1.69-3.73-2.42-1.5-.73-3.12-1.48-4.87-2.26a24.41 24.41 0 01-4.87-2.86c-1.5-1.13-2.74-2.53-3.73-4.22-.99-1.68-1.49-3.83-1.49-6.44 0-2.26.36-4.22 1.08-5.88.72-1.66 1.74-3.04 3.07-4.15 1.33-1.11 2.9-1.93 4.71-2.46s3.84-.8 6.07-.8c2.57 0 5 .23 7.28.7 2.28.47 4.15 1.14 5.63 2.03l-2.72 7.64c-.93-.62-2.32-1.18-4.18-1.69-1.86-.51-3.86-.76-6.01-.76-2.02 0-3.57.42-4.65 1.26-1.08.84-1.61 1.97-1.61 3.39 0 1.33.5 2.44 1.49 3.32.99.89 2.24 1.71 3.73 2.46 1.5.75 3.12 1.53 4.87 2.32 1.75.8 3.37 1.76 4.87 2.89 1.5 1.13 2.74 2.52 3.73 4.18.99 1.66 1.49 3.73 1.49 6.21s-.39 4.62-1.17 6.41c-.78 1.79-1.88 3.29-3.29 4.48-1.41 1.2-3.12 2.08-5.12 2.66-2 .57-4.21.86-6.61.86-3.16 0-5.95-.31-8.35-.93-2.4-.62-4.18-1.24-5.31-1.86l2.78-7.77c.46.27 1.06.55 1.8.86.74.31 1.57.6 2.5.86.93.27 1.91.49 2.94.66 1.03.18 2.1.27 3.19.27 2.57 0 4.54-.45 5.91-1.36 1.38-.91 2.06-2.29 2.06-4.15zm32.91 12.49V29.29c0-2.7-.36-4.65-1.08-5.85-.72-1.2-2.02-1.79-3.92-1.79-1.39 0-2.67.5-3.83 1.49-1.16 1-1.93 2.27-2.31 3.82v21.19h-8.22V1.66h8.22v17h.25c1.01-1.42 2.26-2.55 3.73-3.39 1.48-.84 3.35-1.26 5.63-1.26 1.6 0 3.01.22 4.24.66 1.22.44 2.25 1.17 3.07 2.19.82 1.02 1.43 2.4 1.83 4.15.4 1.75.6 3.91.6 6.48v20.66h-8.21zm13.16-16.61c0-5.62 1.31-9.95 3.92-12.99 2.61-3.03 6.28-4.55 11.01-4.55 2.53 0 4.72.42 6.58 1.26 1.86.84 3.39 2.03 4.62 3.55 1.22 1.53 2.14 3.38 2.75 5.55.61 2.17.92 4.56.92 7.17 0 5.62-1.3 9.95-3.89 12.99-2.59 3.03-6.25 4.55-10.98 4.55-2.53 0-4.72-.42-6.58-1.26-1.86-.84-3.41-2.03-4.65-3.55-1.24-1.53-2.17-3.38-2.78-5.55-.62-2.16-.92-4.56-.92-7.17zm8.47 0c0 1.46.13 2.81.38 4.05.25 1.24.63 2.32 1.14 3.25.51.93 1.17 1.65 1.99 2.16.82.51 1.8.76 2.94.76 2.15 0 3.75-.82 4.81-2.46 1.05-1.64 1.58-4.23 1.58-7.77 0-3.06-.49-5.52-1.46-7.41-.97-1.88-2.62-2.82-4.93-2.82-2.02 0-3.61.8-4.74 2.39-1.14 1.61-1.71 4.22-1.71 7.85zm25.07 0c0-5.62 1.31-9.95 3.92-12.99 2.61-3.03 6.28-4.55 11.01-4.55 2.53 0 4.72.42 6.58 1.26 1.86.84 3.39 2.03 4.62 3.55 1.22 1.53 2.14 3.38 2.75 5.55.61 2.17.92 4.56.92 7.17 0 5.62-1.3 9.95-3.89 12.99-2.59 3.03-6.25 4.55-10.98 4.55-2.53 0-4.72-.42-6.58-1.26-1.86-.84-3.41-2.03-4.65-3.55-1.24-1.53-2.17-3.38-2.78-5.55-.61-2.16-.92-4.56-.92-7.17zm8.48 0c0 1.46.13 2.81.38 4.05.25 1.24.63 2.32 1.14 3.25.51.93 1.17 1.65 1.99 2.16.82.51 1.8.76 2.94.76 2.15 0 3.75-.82 4.81-2.46 1.05-1.64 1.58-4.23 1.58-7.77 0-3.06-.49-5.52-1.46-7.41-.97-1.88-2.62-2.82-4.93-2.82-2.02 0-3.61.8-4.74 2.39-1.14 1.61-1.71 4.22-1.71 7.85z"/><path fill="none" d="M-247.37 117.91H3.78V293.5h-251.15z"/><text transform="matrix(1 0 0 1.05 -247.37 168.308)" class="st0" font-family="PTSans-Bold" font-size="72">Shoo</text></svg>