<?xml version="1.0" encoding="utf-8"?>
<!-- Generator: Adobe Illustrator 25.2.1, SVG Export Plug-In . SVG Version: 6.00 Build 0)  -->
<svg version="1.1" id="Layer_1" xmlns="http://www.w3.org/2000/svg" xmlns:xlink="http://www.w3.org/1999/xlink" x="0px" y="0px"
	 viewBox="0 0 132.06 49.82" style="enable-background:new 0 0 132.06 49.82;" xml:space="preserve">
<style type="text/css">
	.st0{fill:#26592f;}
</style>
<g>
	<path class="st0" d="M21.92,35.67c0-1.42-0.5-2.57-1.49-3.45c-0.99-0.89-2.24-1.69-3.73-2.42c-1.5-0.73-3.12-1.48-4.87-2.26
		c-1.75-0.77-3.37-1.73-4.87-2.86c-1.5-1.13-2.74-2.53-3.73-4.22c-0.99-1.68-1.49-3.83-1.49-6.44c0-2.26,0.36-4.22,1.08-5.88
		c0.72-1.66,1.74-3.04,3.07-4.15c1.33-1.11,2.9-1.93,4.71-2.46c1.81-0.53,3.84-0.8,6.07-0.8c2.57,0,5,0.23,7.28,0.7
		c2.28,0.47,4.15,1.14,5.63,2.03l-2.72,7.64c-0.93-0.62-2.32-1.18-4.18-1.69c-1.86-0.51-3.86-0.76-6.01-0.76
		c-2.02,0-3.57,0.42-4.65,1.26c-1.08,0.84-1.61,1.97-1.61,3.39c0,1.33,0.5,2.44,1.49,3.32c0.99,0.89,2.24,1.71,3.73,2.46
		c1.5,0.75,3.12,1.53,4.87,2.32c1.75,0.8,3.37,1.76,4.87,2.89c1.5,1.13,2.74,2.52,3.73,4.18c0.99,1.66,1.49,3.73,1.49,6.21
		c0,2.48-0.39,4.62-1.17,6.41c-0.78,1.79-1.88,3.29-3.29,4.48c-1.41,1.2-3.12,2.08-5.12,2.66c-2,0.57-4.21,0.86-6.61,0.86
		c-3.16,0-5.95-0.31-8.35-0.93c-2.4-0.62-4.18-1.24-5.31-1.86l2.78-7.77c0.46,0.27,1.06,0.55,1.8,0.86c0.74,0.31,1.57,0.6,2.5,0.86
		c0.93,0.27,1.91,0.49,2.94,0.66c1.03,0.18,2.1,0.27,3.19,0.27c2.57,0,4.54-0.45,5.91-1.36C21.24,38.91,21.92,37.53,21.92,35.67z"/>
	<path class="st0" d="M54.83,48.16V29.29c0-2.7-0.36-4.65-1.08-5.85c-0.72-1.2-2.02-1.79-3.92-1.79c-1.39,0-2.67,0.5-3.83,1.49
		c-1.16,1-1.93,2.27-2.31,3.82v21.19h-8.22V1.66h8.22v17h0.25c1.01-1.42,2.26-2.55,3.73-3.39c1.48-0.84,3.35-1.26,5.63-1.26
		c1.6,0,3.01,0.22,4.24,0.66c1.22,0.44,2.25,1.17,3.07,2.19c0.82,1.02,1.43,2.4,1.83,4.15c0.4,1.75,0.6,3.91,0.6,6.48v20.66H54.83z"
		/>
	<path class="st0" d="M67.99,31.55c0-5.62,1.31-9.95,3.92-12.99c2.61-3.03,6.28-4.55,11.01-4.55c2.53,0,4.72,0.42,6.58,1.26
		c1.86,0.84,3.39,2.03,4.62,3.55c1.22,1.53,2.14,3.38,2.75,5.55c0.61,2.17,0.92,4.56,0.92,7.17c0,5.62-1.3,9.95-3.89,12.99
		c-2.59,3.03-6.25,4.55-10.98,4.55c-2.53,0-4.72-0.42-6.58-1.26c-1.86-0.84-3.41-2.03-4.65-3.55c-1.24-1.53-2.17-3.38-2.78-5.55
		C68.29,36.56,67.99,34.16,67.99,31.55z M76.46,31.55c0,1.46,0.13,2.81,0.38,4.05c0.25,1.24,0.63,2.32,1.14,3.25
		c0.51,0.93,1.17,1.65,1.99,2.16c0.82,0.51,1.8,0.76,2.94,0.76c2.15,0,3.75-0.82,4.81-2.46c1.05-1.64,1.58-4.23,1.58-7.77
		c0-3.06-0.49-5.52-1.46-7.41c-0.97-1.88-2.62-2.82-4.93-2.82c-2.02,0-3.61,0.8-4.74,2.39C77.03,25.31,76.46,27.92,76.46,31.55z"/>
	<path class="st0" d="M101.53,31.55c0-5.62,1.31-9.95,3.92-12.99c2.61-3.03,6.28-4.55,11.01-4.55c2.53,0,4.72,0.42,6.58,1.26
		c1.86,0.84,3.39,2.03,4.62,3.55c1.22,1.53,2.14,3.38,2.75,5.55c0.61,2.17,0.92,4.56,0.92,7.17c0,5.62-1.3,9.95-3.89,12.99
		c-2.59,3.03-6.25,4.55-10.98,4.55c-2.53,0-4.72-0.42-6.58-1.26c-1.86-0.84-3.41-2.03-4.65-3.55c-1.24-1.53-2.17-3.38-2.78-5.55
		C101.84,36.56,101.53,34.16,101.53,31.55z M110.01,31.55c0,1.46,0.13,2.81,0.38,4.05c0.25,1.24,0.63,2.32,1.14,3.25
		c0.51,0.93,1.17,1.65,1.99,2.16c0.82,0.51,1.8,0.76,2.94,0.76c2.15,0,3.75-0.82,4.81-2.46c1.05-1.64,1.58-4.23,1.58-7.77
		c0-3.06-0.49-5.52-1.46-7.41c-0.97-1.88-2.62-2.82-4.93-2.82c-2.02,0-3.61,0.8-4.74,2.39C110.58,25.31,110.01,27.92,110.01,31.55z"
		/>
</g>
<rect x="-247.37" y="117.91" style="fill:none;" width="251.15" height="175.59"/>
<text transform="matrix(1 0 0 1.05 -247.3695 168.3077)" class="st0" style="font-family:'PTSans-Bold'; font-size:72px;">Shoo</text>
</svg>
